<svg width="200px" height="200px" viewBox="0 0 24 24" fill="none" xmlns="http://www.w3.org/2000/svg">
    <title>Data Extraction Icon</title>
    <style>
        .stroke-primary { stroke: #4A90E2; } /* Main Blue */
        .stroke-secondary { stroke: #7f8c8d; } /* Grey */
        .fill-primary { fill: #4A90E2; } /* Main Blue */
        .fill-accent { fill: #E4F0FE; } /* Light Blue Accent */
    </style>
    <g id="document-stack">
        <path d="M8 21H13.5C14.8807 21 16 19.8807 16 18.5V18.5" class="stroke-secondary" stroke-width="1.5" stroke-linecap="round"/>
        <path d="M6 18H11.5C12.8807 18 14 16.8807 14 15.5V15.5" class="stroke-secondary" stroke-width="1.5" stroke-linecap="round"/>
        <path d="M4 15H9.5C10.8807 15 12 13.8807 12 12.5V3.5C12 2.11929 10.8807 1 9.5 1H4.5C3.11929 1 2 2.11929 2 3.5V12.5C2 13.8807 3.11929 15 4.5 15H4Z" class="stroke-primary" stroke-width="1.5"/>
        <path d="M5 5H9" class="stroke-primary" stroke-width="1.5" stroke-linecap="round"/>
        <path d="M5 8H7" class="stroke-primary" stroke-width="1.5" stroke-linecap="round"/>
    </g>
    <g id="magnifying-glass-and-arrow">
        <circle cx="14.5" cy="8.5" r="3" class="fill-accent"/>
        <path d="M16.5 10.5L19 13" class="stroke-primary" stroke-width="1.5" stroke-linecap="round"/>
        <circle cx="14.5" cy="8.5" r="3.5" class="stroke-primary" stroke-width="1.5"/>
        <path d="M14.5 5V1M14.5 1L12 3.5M14.5 1L17 3.5" class="stroke-primary" stroke-width="1.5" stroke-linecap="round" stroke-linejoin="round"/>
    </g>
</svg>